<svg id="visual" viewBox="0 0 960 540" width="960" height="540" xmlns="http://www.w3.org/2000/svg" xmlns:xlink="http://www.w3.org/1999/xlink" version="1.1"><rect x="0" y="0" width="960" height="540" fill="#000f1a"></rect><defs><linearGradient id="grad1_0" x1="43.8%" y1="0%" x2="100%" y2="100%"><stop offset="14.444444444444446%" stop-color="#000f1a" stop-opacity="1"></stop><stop offset="85.55555555555554%" stop-color="#000f1a" stop-opacity="1"></stop></linearGradient></defs><defs><linearGradient id="grad2_0" x1="0%" y1="0%" x2="56.3%" y2="100%"><stop offset="14.444444444444446%" stop-color="#000f1a" stop-opacity="1"></stop><stop offset="85.55555555555554%" stop-color="#000f1a" stop-opacity="1"></stop></linearGradient></defs><g transform="translate(960, 0)"><path d="M0 324C-26.5 316 -53.1 308.1 -81 302.3C-108.9 296.6 -138.3 293.1 -161 278.9C-183.7 264.6 -199.9 239.5 -218.5 218.5C-237.1 197.5 -258.3 180.6 -275.4 159C-292.5 137.4 -305.5 111.1 -313 83.9C-320.4 56.6 -322.2 28.3 -324 0L0 0Z" fill="#860625"></path></g><g transform="translate(0, 540)"><path d="M0 -324C28.7 -322.9 57.4 -321.7 83.9 -313C110.3 -304.2 134.5 -287.9 156.5 -271.1C178.5 -254.2 198.2 -236.9 219.2 -219.2C240.2 -201.5 262.4 -183.3 278 -160.5C293.6 -137.7 302.5 -110.3 309.1 -82.8C315.7 -55.3 319.8 -27.7 324 0L0 0Z" fill="#860625"></path></g></svg>