<svg id="visual" viewBox="0 0 900 600" width="900" height="600" xmlns="http://www.w3.org/2000/svg" xmlns:xlink="http://www.w3.org/1999/xlink" version="1.1"><path d="M0 450L15 442.5C30 435 60 420 90 423.8C120 427.7 150 450.3 180 464C210 477.7 240 482.3 270 479.8C300 477.3 330 467.7 360 470.5C390 473.3 420 488.7 450 477.3C480 466 510 428 540 426C570 424 600 458 630 459.5C660 461 690 430 720 420.5C750 411 780 423 810 432.2C840 441.3 870 447.7 885 450.8L900 454L900 601L885 601C870 601 840 601 810 601C780 601 750 601 720 601C690 601 660 601 630 601C600 601 570 601 540 601C510 601 480 601 450 601C420 601 390 601 360 601C330 601 300 601 270 601C240 601 210 601 180 601C150 601 120 601 90 601C60 601 30 601 15 601L0 601Z" fill="#101010" stroke-linecap="round" stroke-linejoin="miter"></path></svg>