<svg id="visual" viewBox="0 0 900 600" width="900" height="600" xmlns="http://www.w3.org/2000/svg" xmlns:xlink="http://www.w3.org/1999/xlink" version="1.1"><path d="M660 600L671 600L671 480L655 480L655 360L629 360L629 240L664 240L664 120L662 120L662 0L900 0L900 120L900 120L900 240L900 240L900 360L900 360L900 480L900 480L900 600L900 600Z" fill="#000000"></path><path d="M724 600L727 600L727 480L732 480L732 360L724 360L724 240L730 240L730 120L717 120L717 0L900 0L900 120L900 120L900 240L900 240L900 360L900 360L900 480L900 480L900 600L900 600Z" fill="#7b0000"></path><path d="M817 600L807 600L807 480L802 480L802 360L800 360L800 240L824 240L824 120L793 120L793 0L900 0L900 120L900 120L900 240L900 240L900 360L900 360L900 480L900 480L900 600L900 600Z" fill="#b60027"></path></svg>