<svg id="visual" viewBox="0 0 900 600" width="900" height="600" xmlns="http://www.w3.org/2000/svg" xmlns:xlink="http://www.w3.org/1999/xlink" version="1.1"><path d="M242 0L231 0L231 120L247 120L247 240L273 240L273 360L238 360L238 480L240 480L240 600L0 600L0 480L0 480L0 360L0 360L0 240L0 240L0 120L0 120L0 0L0 0Z" fill="#b60027"></path><path d="M178 0L175 0L175 120L170 120L170 240L178 240L178 360L172 360L172 480L185 480L185 600L0 600L0 480L0 480L0 360L0 360L0 240L0 240L0 120L0 120L0 0L0 0Z" fill="#7b0000"></path><path d="M85 0L95 0L95 120L100 120L100 240L102 240L102 360L78 360L78 480L109 480L109 600L0 600L0 480L0 480L0 360L0 360L0 240L0 240L0 120L0 120L0 0L0 0Z" fill="#000000"></path></svg>